<?xml version="1.0" encoding="UTF-8" standalone="no"?>
<!-- Created with Inkscape (http://www.inkscape.org/) -->

<svg
   width="1800.624"
   height="500.59698"
   viewBox="0 0 365.75183 55.554971"
   class="looka-1j8o68f"
   version="1.1"
   id="svg4"
   sodipodi:docname="logo-meuga.svg"
   inkscape:version="1.4.2 (ebf0e940, 2025-05-08)"
   xmlns:inkscape="http://www.inkscape.org/namespaces/inkscape"
   xmlns:sodipodi="http://sodipodi.sourceforge.net/DTD/sodipodi-0.dtd"
   xmlns="http://www.w3.org/2000/svg"
   xmlns:svg="http://www.w3.org/2000/svg">
  <sodipodi:namedview
     id="namedview1"
     pagecolor="#001d56"
     bordercolor="#000000"
     borderopacity="0.25"
     inkscape:showpageshadow="2"
     inkscape:pageopacity="0.0"
     inkscape:pagecheckerboard="0"
     inkscape:deskcolor="#d1d1d1"
     inkscape:zoom="0.36197686"
     inkscape:cx="892.32224"
     inkscape:cy="350.85116"
     inkscape:window-width="1512"
     inkscape:window-height="847"
     inkscape:window-x="0"
     inkscape:window-y="38"
     inkscape:window-maximized="1"
     inkscape:current-layer="g3" />
  <defs
     _ngcontent-ng-c401862244=""
     id="SvgjsDefs1650" />
  <g
     _ngcontent-ng-c401862244=""
     id="SvgjsG1651"
     featurekey="2ou6gm-0"
     transform="matrix(1.3218193,0,0,1.3218193,3.8649076,-19.886674)"
     fill="#ffcd38">
    <g
       _ngcontent-ng-c401862244=""
       id="g3">
      <path
         _ngcontent-ng-c401862244=""
         d="m 49.2,15.8 c -0.3,0.5 -0.2,1.2 0.4,1.6 5.7,4.2 9.5,11 9.5,18.6 0,0.6 0,1.3 -0.1,1.9 -0.1,0.6 0.4,1.2 1,1.3 l 9.9,1.9 c 0.7,0.1 1.4,-0.3 1.4,-1 0.2,-1.3 0.2,-2.7 0.2,-4.1 C 71.5,23.8 65.4,13.1 56,6.7 55.4,6.3 54.6,6.5 54.3,7.1 Z"
         id="path1"
         style="fill:#ffffff" />
      <path
         _ngcontent-ng-c401862244=""
         d="m 43.6,57.7 c -3.1,1.1 -6.5,1.5 -10,1.2 C 22.5,57.8 13.6,48.5 13,37.3 12.2,24 22.8,13 36,13 c 2.9,0 5.6,0.5 8.2,1.5 0.6,0.2 1.2,0 1.5,-0.5 L 50.8,5.3 C 51.2,4.7 50.9,3.9 50.3,3.6 45.2,1.4 39.4,0.3 33.4,0.7 15.9,1.9 1.8,16 0.6,33.5 c -1.4,20.7 15,38 35.4,38 4.8,0 9.4,-1 13.6,-2.7 0.7,-0.3 0.9,-1.1 0.6,-1.7 l -5,-8.8 c -0.4,-0.5 -1,-0.8 -1.6,-0.6 z"
         id="path2"
         style="fill:#ffcc00" />
      <path
         _ngcontent-ng-c401862244=""
         d="m 57.6,43.9 c -1.6,4.5 -4.7,8.3 -8.5,11 -0.5,0.4 -0.7,1.1 -0.4,1.6 l 5,8.7 c 0.3,0.6 1.1,0.8 1.7,0.4 6.8,-4.5 12,-11.2 14.5,-19.1 C 70.1,45.8 69.7,45.1 69,45 L 59,43.1 c -0.6,-0.1 -1.1,0.2 -1.4,0.8 z"
         id="path3"
         style="fill:#ffcc00" />
    </g>
  </g>
  <g
     _ngcontent-ng-c401862244=""
     id="SvgjsG1652"
     featurekey="kZnDdN-0"
     transform="matrix(3.6689165,0,0,3.6689165,106.67728,-20.601271)"
     fill="#4a4a4a"
     style="fill:#ffffff">
    <path
       _ngcontent-ng-c401862244=""
       d="m 15.78,6 v 14 h -1.7 V 9.72 L 9.16,20 H 7.8 L 2.9,9.74 V 20 H 1.2 V 6 H 2.84 L 8.5,17.72 14.14,6 Z m 4.06,12.44 H 26.5 V 20 H 19.44 18.18 V 6 h 1.66 6.48 v 1.56 h -6.48 v 4.64 h 5.04 v 1.52 H 19.84 Z M 37.1,6 h 1.66 v 8.92 c 0,3.44 -2.24,5.38 -5.08,5.38 -2.84,0 -5.08,-1.94 -5.08,-5.38 V 6 h 1.66 v 8.92 c 0,2.62 1.56,3.8 3.42,3.8 1.86,0 3.42,-1.18 3.42,-3.8 z m 17.32,6.96 c 0.3,4.48 -2.76,7.24 -6.4,7.24 -3.74,0 -7.16,-2.96 -7.16,-7.2 0,-4.24 3.5,-7.2 7.16,-7.2 1.76,0 3.36,0.6 4.62,1.66 l -1.02,1.16 c -0.98,-0.78 -2.24,-1.24 -3.5,-1.24 -2.86,0 -5.54,2.32 -5.54,5.62 0,3.3 2.6,5.62 5.44,5.62 2.48,0 4.46,-1.34 4.84,-4.22 H 48.78 V 12.96 Z M 67.58,20 66.14,16.7 H 58.66 L 57.22,20 H 55.46 L 61.7,6 h 1.38 l 6.26,14 z m -8.3,-4.7 h 6.24 L 62.4,8.18 Z"
       id="path4"
       style="fill:#ffffff" />
  </g>
</svg>
